<svg xmlns="http://www.w3.org/2000/svg" width="15.539" height="20.414" viewBox="0 0 15.539 20.414">
  <g id="Group_2539" data-name="Group 2539" transform="translate(-350.825 -1629.441)">
    <path id="Path_2352" data-name="Path 2352" d="M13.883,214.883A3.883,3.883,0,1,1,10,211,3.883,3.883,0,0,1,13.883,214.883Z" transform="translate(348.595 1419.441)" fill="none" stroke="#007d40" stroke-linecap="round" stroke-linejoin="round" stroke-width="2"/>
    <path id="Path_2353" data-name="Path 2353" d="M3.23,229v-1.866a4.9,4.9,0,0,1,4.9-4.9h3.732a4.9,4.9,0,0,1,4.9,4.9V229" transform="translate(348.595 1419.441)" fill="none" stroke="#007d40" stroke-linecap="round" stroke-linejoin="round" stroke-width="2"/>
    <path id="Path_2359" data-name="Path 2359" d="M8.3,229.2l1-3.894H10.7l1,3.894" transform="translate(348.595 1419.441)" fill="none" stroke="#007d40" stroke-linecap="round" stroke-linejoin="round" stroke-width="2"/>
    <path id="Path_2360" data-name="Path 2360" d="M11.7,222.59l-1,2.6H9.3l-1-2.6" transform="translate(348.595 1419.441)" fill="none" stroke="#007d40" stroke-linecap="round" stroke-linejoin="round" stroke-width="2"/>
  </g>
</svg>
