<svg xmlns="http://www.w3.org/2000/svg" width="27.429" height="24" viewBox="0 0 27.429 24">
  <path id="Icon_awesome-quote-left" data-name="Icon awesome-quote-left" d="M24.857,14.25H20.571V10.821A3.432,3.432,0,0,1,24,7.393h.429a1.283,1.283,0,0,0,1.286-1.286V3.536A1.283,1.283,0,0,0,24.429,2.25H24a8.569,8.569,0,0,0-8.571,8.571V23.679A2.572,2.572,0,0,0,18,26.25h6.857a2.572,2.572,0,0,0,2.571-2.571V16.821A2.572,2.572,0,0,0,24.857,14.25Zm-15.429,0H5.143V10.821A3.432,3.432,0,0,1,8.571,7.393H9a1.283,1.283,0,0,0,1.286-1.286V3.536A1.283,1.283,0,0,0,9,2.25H8.571A8.569,8.569,0,0,0,0,10.821V23.679A2.572,2.572,0,0,0,2.571,26.25H9.429A2.572,2.572,0,0,0,12,23.679V16.821A2.572,2.572,0,0,0,9.429,14.25Z" transform="translate(0 -2.25)" fill="#007d40"/>
</svg>
