<?xml version="1.0" encoding="UTF-8" standalone="no"?>
<svg
   id="stopka"
   width="131.998"
   height="38.00169"
   viewBox="0 0 131.998 38.00169"
   version="1.1"
   sodipodi:docname="dekra_white.svg"
   inkscape:version="1.1.1 (3bf5ae0d25, 2021-09-20, custom)"
   xmlns:inkscape="http://www.inkscape.org/namespaces/inkscape"
   xmlns:sodipodi="http://sodipodi.sourceforge.net/DTD/sodipodi-0.dtd"
   xmlns="http://www.w3.org/2000/svg"
   xmlns:svg="http://www.w3.org/2000/svg">
  <defs
     id="defs86" />
  <sodipodi:namedview
     id="namedview84"
     pagecolor="#ffffff"
     bordercolor="#666666"
     borderopacity="1.0"
     inkscape:pageshadow="2"
     inkscape:pageopacity="0.0"
     inkscape:pagecheckerboard="0"
     showgrid="false"
     fit-margin-top="1"
     fit-margin-left="1"
     fit-margin-right="1"
     fit-margin-bottom="1"
     inkscape:zoom="0.6484375"
     inkscape:cx="919.90361"
     inkscape:cy="178.12048"
     inkscape:window-width="2558"
     inkscape:window-height="1398"
     inkscape:window-x="2560"
     inkscape:window-y="20"
     inkscape:window-maximized="1"
     inkscape:current-layer="stopka" />
  <g
     id="Group_2315"
     data-name="Group 2315"
     transform="translate(-120.061,-193.45631)">
    <path
       id="Path_2156"
       data-name="Path 2156"
       d="m 181.49,222.53 h 11.442 v -3.772 H 185.8 v -6.012 h 6.865 v -3.773 H 185.8 v -4.892 h 7.129 v -3.772 H 181.49 Z m -13.4,-22.221 h -6.16 v 22.221 h 6.131 c 6.308,0 10.708,-4.833 10.708,-11.081 0.001,-6.337 -4.282,-11.14 -10.678,-11.14 z m -1.144,18.449 h -0.7 v -14.677 h 0.7 c 4.9,0 7.364,2.5 7.364,7.338 0.001,4.391 -2.054,7.339 -7.363,7.339 z m 76.09,-17.64 a 2.146,2.146 0 0 0 -2.027,-1.4 2.177,2.177 0 0 0 -2.027,1.4 L 230.7,222.53 h 4.548 l 1.818,-4.686 h 7.687 l 1.7,4.686 h 4.606 z m -4.736,13.189 2.685,-8.046 h 0.058 l 2.508,8.046 z m -25.1,-14 h -5.31 l -6.836,9.371 h -0.059 v -9.371 h -4.315 v 22.223 h 4.313 v -9.99 h 0.059 l 7.07,9.99 h 5.545 l -8.861,-11.966 z m 16.576,6.646 a 6.63,6.63 0 0 0 -6.616,-6.646 h -7.422 v 22.223 h 4.313 v -8.959 l 5.427,8.959 h 5.222 l -6.064,-9.095 a 6.642,6.642 0 0 0 5.138,-6.481 z m -7.423,3.58 h -2.3 v -6.69 h 2.3 a 3.355,3.355 0 0 1 0,6.69 z m -75.677,-5.011 -18.692,-10.871 a 1.425,1.425 0 0 0 -1.438,0 1.441,1.441 0 0 0 -0.718,1.254 v 20.905 l 5.751,-3.344 v -10.033 l 12.222,7.108 -22.74,13.227 v 6.69 l 25.616,-14.9 a 5.815,5.815 0 0 0 0,-10.034 z"
       fill="#ffffff" />
  </g>
</svg>
